<svg id="Layer_1" data-name="Layer 1" xmlns="http://www.w3.org/2000/svg" xmlns:xlink="http://www.w3.org/1999/xlink" viewBox="0 0 140 80"><defs><style>.cls-1,.cls-2,.cls-3,.cls-4,.cls-5,.cls-6,.cls-7,.cls-8,.cls-9{fill-rule:evenodd;}.cls-1{fill:url(#New_Gradient_Swatch_1);}.cls-2{fill:url(#New_Gradient_Swatch_1-2);}.cls-3{fill:url(#linear-gradient);}.cls-4{fill:url(#New_Gradient_Swatch_2);}.cls-5{fill:url(#New_Gradient_Swatch_3);}.cls-6{fill:url(#New_Gradient_Swatch_3-2);}.cls-7{fill:url(#New_Gradient_Swatch_3-3);}.cls-8{fill:url(#New_Gradient_Swatch_3-4);}.cls-9{fill:url(#New_Gradient_Swatch_3-5);}</style><linearGradient id="New_Gradient_Swatch_1" y1="14.88" x2="140" y2="14.88" gradientUnits="userSpaceOnUse"><stop offset="0" stop-color="#7f7f7f"/><stop offset="1" stop-color="#c1c0c0"/></linearGradient><linearGradient id="New_Gradient_Swatch_1-2" x1="36.59" y1="58.6" x2="98.7" y2="58.6" xlink:href="#New_Gradient_Swatch_1"/><linearGradient id="linear-gradient" x1="1.62" y1="14.47" x2="138.38" y2="14.47" gradientUnits="userSpaceOnUse"><stop offset="0" stop-color="#e5e5e5"/><stop offset="1" stop-color="#7f7f7f"/></linearGradient><linearGradient id="New_Gradient_Swatch_2" x1="37.43" y1="58.75" x2="97.08" y2="58.75" gradientUnits="userSpaceOnUse"><stop offset="0" stop-color="#c1c0c0"/><stop offset="1" stop-color="#7f7f7f"/></linearGradient><linearGradient id="New_Gradient_Swatch_3" x1="15.88" y1="12.22" x2="112.5" y2="64.96" gradientUnits="userSpaceOnUse"><stop offset="0" stop-color="#cc992c"/><stop offset="1" stop-color="#f9f293"/></linearGradient><linearGradient id="New_Gradient_Swatch_3-2" x1="28.11" y1="-10.46" x2="124.96" y2="42.41" xlink:href="#New_Gradient_Swatch_3"/><linearGradient id="New_Gradient_Swatch_3-3" x1="107.82" y1="39.13" x2="-8.11" y2="30.46" xlink:href="#New_Gradient_Swatch_3"/><linearGradient id="New_Gradient_Swatch_3-4" x1="107.6" y1="40.54" x2="-8.14" y2="31.88" xlink:href="#New_Gradient_Swatch_3"/><linearGradient id="New_Gradient_Swatch_3-5" x1="108.62" y1="27.58" x2="-7.24" y2="18.91" xlink:href="#New_Gradient_Swatch_3"/></defs><title>logo</title><path class="cls-1" d="M0,0H140L114,29.77c-.07-.39-.16-.78-.26-1.16a14.75,14.75,0,0,0-1.41-3.5L130.5,4.29H9.5L24.79,21.77l-1.7,4.62L0,0Z"/><polygon class="cls-2" points="98.7 47.2 70 80 36.59 41.82 38.29 37.19 70 73.43 92.96 47.2 98.7 47.2"/><path class="cls-3" d="M1.62.73,22.83,25l1.12-3L7.88,3.56H132.12l-19,21.65a15,15,0,0,1,1.17,3l24-27.47Z"/><polygon class="cls-4" points="97.08 47.93 93.3 47.93 70 74.55 38.55 38.61 37.43 41.66 70 78.88 97.08 47.93"/><path class="cls-5" d="M19.57,44.33h13l5.33-14.52L70,66.48,86.52,47.6l-10.8,8.9L53,30.87a53.06,53.06,0,0,0,5.8-.77,20.42,20.42,0,0,0,5.62-1.87,12.47,12.47,0,0,0,4.23-3.52,9,9,0,0,0,1.69-5.62,20.58,20.58,0,0,0-.3-3.35,11.12,11.12,0,0,0-1.12-3.35,7.09,7.09,0,0,0-2.27-2.54,6.47,6.47,0,0,0-3.76-1H19.57l7.85,9H56a2.24,2.24,0,1,1,0,4.48H44.43l-6,6,2.2-6h-13l-8.12,22Z"/><path class="cls-6" d="M97.76,31H84.19a7,7,0,0,1-3.66-1,10.19,10.19,0,0,1-2.81-2.47,11.42,11.42,0,0,1-2.4-6.86,8.68,8.68,0,0,1,1-3.65,18.81,18.81,0,0,1,2.43-3.89,15.17,15.17,0,0,1,3.39-3.08,6.92,6.92,0,0,1,3.79-1.23h34.55l-8,9.1H90.06a2.18,2.18,0,1,0,0,4.35h13.08a6.58,6.58,0,0,1,3.72,1A8.43,8.43,0,0,1,109.42,26a12.23,12.23,0,0,1,1.46,3.38,13.55,13.55,0,0,1,.47,3.35v.4a9.85,9.85,0,0,1-.81,3.72,15.07,15.07,0,0,1-2.14,3.65,12.27,12.27,0,0,1-3,2.77,6.5,6.5,0,0,1-3.56,1.11H71.53l-8-9H97.74a2.18,2.18,0,1,0,0-4.35Z"/><polygon class="cls-7" points="20.63 43.6 32.06 43.6 36.64 31.13 36.61 31.16 39.61 23.03 28.2 23.03 20.63 43.6 20.63 43.6"/><path class="cls-8" d="M38.46,29.31,44.74,23H56a3,3,0,1,0,0-5.94q-13.31,0-26.61,0H27.76L21.19,9.58H62.85a5.83,5.83,0,0,1,3.34.87,6.38,6.38,0,0,1,2,2.28,10.3,10.3,0,0,1,1,3.13,19.49,19.49,0,0,1,.29,3.23A8.32,8.32,0,0,1,68,24.27a11.7,11.7,0,0,1-4,3.31,20,20,0,0,1-5.42,1.8,52.51,52.51,0,0,1-5.71.76l-1.48.11L75.64,57.52,80,53.9,70,65.36l-31.54-36Z"/><path class="cls-9" d="M65.2,36.09l6.66,7.51H101.8a5.78,5.78,0,0,0,3.15-1A11.56,11.56,0,0,0,107.82,40a14.22,14.22,0,0,0,2-3.47,9.1,9.1,0,0,0,.76-3.44v-.4a12.43,12.43,0,0,0-.45-3.16,11.28,11.28,0,0,0-1.37-3.19A7.86,7.86,0,0,0,106.47,24a5.86,5.86,0,0,0-3.31-.92H90.08a2.91,2.91,0,1,1,0-5.81h22l6.71-7.64H85.88a6.19,6.19,0,0,0-3.38,1.11,14.27,14.27,0,0,0-3.22,2.93,17.84,17.84,0,0,0-2.34,3.73,8.18,8.18,0,0,0-.88,3.35A10.37,10.37,0,0,0,76.63,24a10.26,10.26,0,0,0,1.68,3.1,9.55,9.55,0,0,0,2.6,2.3,6.29,6.29,0,0,0,3.28.86H97.77a2.91,2.91,0,1,1,0,5.82Z"/></svg>