<svg xmlns="http://www.w3.org/2000/svg">
    <symbol id="placeholder" viewBox="0 0 600 450">
        <rect fill="#999999" class="background uk-preserve" width="600" height="450"/>
        <path fill="#ffffff" class="camera uk-preserve" d="M279.27,156l-9.72,9.72,24.83,25.48a15.47,15.47,0,0,1,5.62-.65,34.21,34.21,0,0,1,34.55,34.56,15.41,15.41,0,0,1-.64,5.61l35.2,35.2V183.64a13.85,13.85,0,0,0-13.82-13.82H334.55L320.73,156Zm-38.44.22-9.72,9.71,6,6a13.86,13.86,0,0,0-6.26,11.66v82.93a13.84,13.84,0,0,0,13.82,13.82H345.57L359.17,294l9.72-9.72Zm63.92,45.35L324.19,221C322.11,210.64,314.42,202.94,304.75,201.57Zm-33.26,4.75,7.56,7.56a22.28,22.28,0,0,0-3.24,11.23A24.5,24.5,0,0,0,300,249.3a23,23,0,0,0,11.45-3l7.34,7.35a33.44,33.44,0,0,1-18.79,6,34.21,34.21,0,0,1-34.55-34.55A33.44,33.44,0,0,1,271.49,206.32Z"/>
    </symbol>
    <symbol id="placeholdersquare" viewBox="0 0 600 600">
        <rect fill="#999999" class="background uk-preserve" width="600" height="600"/>
        <path fill="#ffffff" class="camera uk-preserve" d="M279.3,231l-9.7,9.7l24.8,25.5c1.8-0.6,3.7-0.8,5.6-0.7c18.9-0.2,34.4,15,34.6,33.9c0,0.2,0,0.5,0,0.7c0.1,1.9-0.1,3.8-0.6,5.6l35.2,35.2v-82.3c0-7.6-6.2-13.8-13.8-13.8h-20.7L320.7,231H279.3z M240.8,231.2l-9.7,9.7l6,6c-3.9,2.6-6.3,7-6.3,11.7v82.9c0,7.6,6.2,13.8,13.8,13.8h100.9l13.6,13.7l9.7-9.7L240.8,231.2z M304.8,276.6l19.4,19.4C322.1,285.6,314.4,277.9,304.8,276.6z M271.5,281.3l7.6,7.6c-2.1,3.4-3.2,7.3-3.2,11.2c0.2,13.3,10.9,24,24.2,24.2c4,0,8-1,11.5-3l7.3,7.4c-5.5,3.8-12.1,5.9-18.8,6c-18.9,0.2-34.4-15-34.5-33.9c0-0.2,0-0.5,0-0.7C265.5,293.4,267.6,286.8,271.5,281.3z"/>
    </symbol>
    <symbol id="producticon" viewBox="0 0 203.58 217.18">
        <path class="uk-preserve" d="M201.78,47.92,103.17.31a3.18,3.18,0,0,0-2.76,0L1.8,47.92A3.17,3.17,0,0,0,0,50.78V166.4a3.17,3.17,0,0,0,1.8,2.86l98.61,47.6a3.2,3.2,0,0,0,2.77,0l98.6-47.6a3.17,3.17,0,0,0,1.8-2.86V50.78A3.17,3.17,0,0,0,201.78,47.92ZM101.79,6.7l91.29,44.08L166.62,63.56a3.06,3.06,0,0,0-.54-.34L75.41,19.45ZM68.22,23l91.16,44-18.67,9L49.59,32Zm93.29,50.05V106.4l-17.43,8.42V81.51Zm35.7,91.31L105,208.93V100.38l22-10.62A3.18,3.18,0,0,0,124.2,84h0L101.79,94.85,93,90.6a3.18,3.18,0,0,0-2.77,5.73h0l8.41,4.06V208.93L6.36,164.4V55.85L76.61,89.76A3.18,3.18,0,1,0,79.37,84L10.5,50.78,42.1,35.52,137.67,81.7v38.2a3.18,3.18,0,0,0,4.57,2.86L166,111.27a3.17,3.17,0,0,0,1.8-2.86V70l29.34-14.16V164.4Z" transform="translate(0 0.01)"/>
        <path class="uk-preserve" d="M32.62,152.06l-14.47-7a3.19,3.19,0,1,0-2.77,5.74h0l14.47,7a3.18,3.18,0,1,0,2.77-5.73h0Z" transform="translate(0 0.01)"/>
        <path class="uk-preserve" d="M45.94,143.39,18.17,130a3.18,3.18,0,0,0-2.77,5.72h0l27.77,13.41a3.18,3.18,0,1,0,2.77-5.73h0Z" transform="translate(0 0.01)"/>
    </symbol>
</svg>