<svg xmlns="http://www.w3.org/2000/svg">
    <symbol id="placeholder" viewBox="0 0 600 450">
        <rect fill="#999999" class="background uk-preserve" width="600" height="450"/>
        <path fill="#ffffff" class="camera uk-preserve" d="M279.27,156l-9.72,9.72,24.83,25.48a15.47,15.47,0,0,1,5.62-.65,34.21,34.21,0,0,1,34.55,34.56,15.41,15.41,0,0,1-.64,5.61l35.2,35.2V183.64a13.85,13.85,0,0,0-13.82-13.82H334.55L320.73,156Zm-38.44.22-9.72,9.71,6,6a13.86,13.86,0,0,0-6.26,11.66v82.93a13.84,13.84,0,0,0,13.82,13.82H345.57L359.17,294l9.72-9.72Zm63.92,45.35L324.19,221C322.11,210.64,314.42,202.94,304.75,201.57Zm-33.26,4.75,7.56,7.56a22.28,22.28,0,0,0-3.24,11.23A24.5,24.5,0,0,0,300,249.3a23,23,0,0,0,11.45-3l7.34,7.35a33.44,33.44,0,0,1-18.79,6,34.21,34.21,0,0,1-34.55-34.55A33.44,33.44,0,0,1,271.49,206.32Z"/>
    </symbol>
    <symbol id="placeholdersquare" viewBox="0 0 600 600">
        <rect fill="#999999" class="background uk-preserve" width="600" height="600"/>
        <path fill="#ffffff" class="camera uk-preserve" d="M279.3,231l-9.7,9.7l24.8,25.5c1.8-0.6,3.7-0.8,5.6-0.7c18.9-0.2,34.4,15,34.6,33.9c0,0.2,0,0.5,0,0.7c0.1,1.9-0.1,3.8-0.6,5.6l35.2,35.2v-82.3c0-7.6-6.2-13.8-13.8-13.8h-20.7L320.7,231H279.3z M240.8,231.2l-9.7,9.7l6,6c-3.9,2.6-6.3,7-6.3,11.7v82.9c0,7.6,6.2,13.8,13.8,13.8h100.9l13.6,13.7l9.7-9.7L240.8,231.2z M304.8,276.6l19.4,19.4C322.1,285.6,314.4,277.9,304.8,276.6z M271.5,281.3l7.6,7.6c-2.1,3.4-3.2,7.3-3.2,11.2c0.2,13.3,10.9,24,24.2,24.2c4,0,8-1,11.5-3l7.3,7.4c-5.5,3.8-12.1,5.9-18.8,6c-18.9,0.2-34.4-15-34.5-33.9c0-0.2,0-0.5,0-0.7C265.5,293.4,267.6,286.8,271.5,281.3z"/>
    </symbol>
    <symbol id="producticon" viewBox="0 0 203.58 217.18">
        <path class="uk-preserve" d="M201.78,47.92,103.17.31a3.18,3.18,0,0,0-2.76,0L1.8,47.92A3.17,3.17,0,0,0,0,50.78V166.4a3.17,3.17,0,0,0,1.8,2.86l98.61,47.6a3.2,3.2,0,0,0,2.77,0l98.6-47.6a3.17,3.17,0,0,0,1.8-2.86V50.78A3.17,3.17,0,0,0,201.78,47.92ZM101.79,6.7l91.29,44.08L166.62,63.56a3.06,3.06,0,0,0-.54-.34L75.41,19.45ZM68.22,23l91.16,44-18.67,9L49.59,32Zm93.29,50.05V106.4l-17.43,8.42V81.51Zm35.7,91.31L105,208.93V100.38l22-10.62A3.18,3.18,0,0,0,124.2,84h0L101.79,94.85,93,90.6a3.18,3.18,0,0,0-2.77,5.73h0l8.41,4.06V208.93L6.36,164.4V55.85L76.61,89.76A3.18,3.18,0,1,0,79.37,84L10.5,50.78,42.1,35.52,137.67,81.7v38.2a3.18,3.18,0,0,0,4.57,2.86L166,111.27a3.17,3.17,0,0,0,1.8-2.86V70l29.34-14.16V164.4Z" transform="translate(0 0.01)"/>
        <path class="uk-preserve" d="M32.62,152.06l-14.47-7a3.19,3.19,0,1,0-2.77,5.74h0l14.47,7a3.18,3.18,0,1,0,2.77-5.73h0Z" transform="translate(0 0.01)"/>
        <path class="uk-preserve" d="M45.94,143.39,18.17,130a3.18,3.18,0,0,0-2.77,5.72h0l27.77,13.41a3.18,3.18,0,1,0,2.77-5.73h0Z" transform="translate(0 0.01)"/>
    </symbol>
    <!--Categories-->
    <symbol id="category11" viewBox="0 0 48 48">
        <path d="M13.33,48a13.34,13.34,0,1,1,9.43-3.91h0A13.25,13.25,0,0,1,13.33,48Zm0-24.39a11.05,11.05,0,1,0,7.81,18.86h0a11.05,11.05,0,0,0-7.81-18.86Z"/>
        <path d="M43.29,23.1a1.1,1.1,0,0,1-.81-.34,1.13,1.13,0,0,1,0-1.61A11.05,11.05,0,0,0,26.85,5.52a1.14,1.14,0,0,1-1.61-1.61A13.34,13.34,0,0,1,48,13.34a13.21,13.21,0,0,1-3.91,9.42A1.1,1.1,0,0,1,43.29,23.1Z"/>
        <path d="M4.71,27.19a1.14,1.14,0,0,1-.81-2L25.24,3.91a1.14,1.14,0,1,1,1.61,1.61L5.52,26.86A1.17,1.17,0,0,1,4.71,27.19Z"/>
        <path d="M22,44.44a1.15,1.15,0,0,1-.81-2L42.48,21.15a1.14,1.14,0,0,1,1.61,1.61L22.76,44.1A1.18,1.18,0,0,1,22,44.44Z"/>
        <path d="M13.33,43.43a8.76,8.76,0,1,1,6.2-2.56h0A8.74,8.74,0,0,1,13.33,43.43Zm0-15.23a6.47,6.47,0,1,0,4.58,1.89A6.46,6.46,0,0,0,13.33,28.2Zm5.39,11.86Z"/>
    </symbol>
    <symbol id="category12" viewBox="0 0 48 48">
        <path d="M5.71,48a5.72,5.72,0,1,1,4-9.75,5.71,5.71,0,0,1-4,9.75Zm0-9.14a3.43,3.43,0,1,0,2.43,5.85h0a3.43,3.43,0,0,0-2.43-5.85Z"/>
        <path d="M45.52,10.09a1.15,1.15,0,0,1-.81-1.95,3.43,3.43,0,0,0-4.85-4.85,1.13,1.13,0,0,1-1.61,0,1.14,1.14,0,0,1,0-1.62,5.71,5.71,0,0,1,9.75,4,5.65,5.65,0,0,1-1.67,4A1.14,1.14,0,0,1,45.52,10.09Z"/>
        <path d="M2.48,40.2a1.18,1.18,0,0,1-.81-.34,1.15,1.15,0,0,1,0-1.61L38.25,1.67a1.14,1.14,0,0,1,1.61,1.62L3.29,39.86A1.16,1.16,0,0,1,2.48,40.2Z"/>
        <path d="M9,46.66a1.14,1.14,0,0,1-.81-1.95L44.71,8.14a1.14,1.14,0,0,1,1.62,1.61L9.75,46.33A1.13,1.13,0,0,1,9,46.66Z"/>
        <path d="M15.62,40.76a1.14,1.14,0,0,1-1.14-1.14c0-5.43-2-8.76-3.43-8.76a1.15,1.15,0,1,1,0-2.29c3.26,0,5.71,4.75,5.71,11A1.14,1.14,0,0,1,15.62,40.76Z"/>
        <path d="M21.71,34.67a1.15,1.15,0,0,1-1.14-1.15c0-5.42-2-8.76-3.43-8.76a1.14,1.14,0,0,1,0-2.28c3.26,0,5.72,4.75,5.72,11A1.15,1.15,0,0,1,21.71,34.67Z"/>
        <path d="M27.81,28.57a1.14,1.14,0,0,1-1.14-1.14c0-5.43-2-8.76-3.43-8.76a1.15,1.15,0,0,1,0-2.29c3.26,0,5.71,4.75,5.71,11.05A1.14,1.14,0,0,1,27.81,28.57Z"/>
        <path d="M33.9,22.48a1.15,1.15,0,0,1-1.14-1.15c0-5.43-2-8.76-3.43-8.76a1.14,1.14,0,1,1,0-2.28c3.26,0,5.72,4.75,5.72,11A1.15,1.15,0,0,1,33.9,22.48Z"/>
        <path d="M40,16.38a1.14,1.14,0,0,1-1.14-1.14c0-5.43-2-8.76-3.43-8.76a1.15,1.15,0,0,1,0-2.29c3.26,0,5.71,4.75,5.71,11.05A1.14,1.14,0,0,1,40,16.38Z"/>
    </symbol>
    <symbol id="category13" viewBox="0 0 48 48">
        <path d="M45.33,34.29a1.15,1.15,0,0,1-1.14-1.15V7.24a1.15,1.15,0,0,1,2.29,0v25.9A1.16,1.16,0,0,1,45.33,34.29Z"/>
        <path d="M36.19,34.29a1.15,1.15,0,0,1-1.14-1.15V7.24a1.14,1.14,0,0,1,2.28,0v25.9A1.15,1.15,0,0,1,36.19,34.29Z"/>
        <path d="M17.9,34.29a1.15,1.15,0,0,1-1.14-1.15V28.57a1.15,1.15,0,0,1,2.29,0v4.57A1.15,1.15,0,0,1,17.9,34.29Z"/>
        <path d="M27.05,34.29a1.16,1.16,0,0,1-1.15-1.15V28.57a1.15,1.15,0,0,1,2.29,0v4.57A1.15,1.15,0,0,1,27.05,34.29Z"/>
        <path d="M7.24,17.52A1.14,1.14,0,0,1,6.1,16.38V4.19a1.14,1.14,0,1,1,2.28,0V16.38A1.14,1.14,0,0,1,7.24,17.52Z"/>
        <path d="M46.86,2.29H34.67a1.16,1.16,0,0,1-1.15-1.15A1.15,1.15,0,0,1,34.67,0H46.86a1.15,1.15,0,0,1,0,2.29Z"/>
        <path d="M7.24,5.33H1.14a1.14,1.14,0,0,1,0-2.28h6.1a1.14,1.14,0,0,1,0,2.28Z"/>
        <path d="M7.24,17.52H1.14a1.14,1.14,0,0,1,0-2.28h6.1a1.14,1.14,0,1,1,0,2.28Z"/>
        <path d="M1.14,17.52A1.14,1.14,0,0,1,0,16.38V4.19a1.15,1.15,0,0,1,2.29,0V16.38A1.15,1.15,0,0,1,1.14,17.52Z"/>
        <path d="M46.86,8.38H34.67a1.14,1.14,0,1,1,0-2.28H46.86a1.14,1.14,0,0,1,0,2.28Z"/>
        <path d="M34.67,8.38a1.15,1.15,0,0,1-1.15-1.14V1.14a1.15,1.15,0,0,1,2.29,0v6.1A1.14,1.14,0,0,1,34.67,8.38Z"/>
        <path d="M46.86,8.38a1.15,1.15,0,0,1-1.15-1.14V1.14a1.15,1.15,0,0,1,2.29,0v6.1A1.14,1.14,0,0,1,46.86,8.38Z"/>
        <path d="M31.62,38.86a5.73,5.73,0,0,1-5.72-5.72,1.15,1.15,0,0,1,2.29,0,3.43,3.43,0,1,0,6.86,0,1.14,1.14,0,0,1,2.28,0A5.72,5.72,0,0,1,31.62,38.86Z"/>
        <path d="M31.62,48A14.88,14.88,0,0,1,16.76,33.14a1.15,1.15,0,0,1,2.29,0,12.57,12.57,0,0,0,25.14,0,1.15,1.15,0,0,1,2.29,0A14.88,14.88,0,0,1,31.62,48Z"/>
        <path d="M14.86,6.86H7.24a1.15,1.15,0,0,1,0-2.29h7.62a1.15,1.15,0,0,1,0,2.29Z"/>
        <path d="M14.86,16H7.24a1.15,1.15,0,0,1,0-2.29h7.62a1.15,1.15,0,0,1,0,2.29Z"/>
        <path d="M27.05,19.05A1.15,1.15,0,0,1,25.9,17.9a11,11,0,0,0-11-11,1.15,1.15,0,1,1,0-2.29A13.35,13.35,0,0,1,28.19,17.9,1.14,1.14,0,0,1,27.05,19.05Z"/>
        <path d="M17.9,19.05a1.14,1.14,0,0,1-1.14-1.15,1.9,1.9,0,0,0-1.9-1.9,1.15,1.15,0,1,1,0-2.29,4.2,4.2,0,0,1,4.19,4.19A1.14,1.14,0,0,1,17.9,19.05Z"/>
        <path d="M28.57,23.62H16.38a1.15,1.15,0,0,1,0-2.29H28.57a1.15,1.15,0,0,1,0,2.29Z"/>
        <path d="M28.57,29.71H16.38a1.14,1.14,0,1,1,0-2.28H28.57a1.14,1.14,0,0,1,0,2.28Z"/>
        <path d="M16.38,29.71a1.14,1.14,0,0,1-1.14-1.14V22.48a1.14,1.14,0,1,1,2.28,0v6.09A1.14,1.14,0,0,1,16.38,29.71Z"/>
        <path d="M28.57,29.71a1.14,1.14,0,0,1-1.14-1.14V22.48a1.14,1.14,0,1,1,2.28,0v6.09A1.14,1.14,0,0,1,28.57,29.71Z"/>
        <path d="M17.9,23.62a1.14,1.14,0,0,1-1.14-1.14V17.9a1.15,1.15,0,0,1,2.29,0v4.58A1.14,1.14,0,0,1,17.9,23.62Z"/>
        <path d="M27.05,23.62a1.15,1.15,0,0,1-1.15-1.14V17.9a1.15,1.15,0,0,1,2.29,0v4.58A1.14,1.14,0,0,1,27.05,23.62Z"/>
    </symbol>
    <symbol id="category14" viewBox="0 0 42 48">
        <path d="M37.75,48H4.15A1.14,1.14,0,0,1,3,46.86V7.24A1.14,1.14,0,0,1,4.15,6.1h33.6a1.14,1.14,0,0,1,1.14,1.14V46.86A1.14,1.14,0,0,1,37.75,48ZM5.29,45.71H36.6V8.38H5.29Z" transform="translate(-3)"/>
        <path d="M10.25,8.38A1.14,1.14,0,0,1,9.11,7.24V1.14a1.15,1.15,0,0,1,2.29,0v6.1A1.14,1.14,0,0,1,10.25,8.38Z" transform="translate(-3)"/>
        <path d="M43.85,2.29H10.25a1.15,1.15,0,0,1,0-2.29h33.6a1.15,1.15,0,1,1,0,2.29Z" transform="translate(-3)"/>
        <path d="M43.85,45h-6.1a1.14,1.14,0,1,1,0-2.28h6.1a1.14,1.14,0,1,1,0,2.28Z" transform="translate(-3)"/>
        <path d="M43.85,45a1.14,1.14,0,0,1-1.14-1.14V1.14a1.15,1.15,0,0,1,2.29,0V43.81A1.14,1.14,0,0,1,43.85,45Z" transform="translate(-3)"/>
        <path d="M27.05,18.29a1.18,1.18,0,0,1-.81-.34,1.16,1.16,0,0,1,0-1.62l6.11-6.09A1.15,1.15,0,0,1,34,11.86L27.86,18A1.14,1.14,0,0,1,27.05,18.29Z" transform="translate(-3)"/>
        <path d="M24,15.24a1.15,1.15,0,0,1-.81-2l3-3a1.15,1.15,0,0,1,1.62,1.62l-3.05,3A1.12,1.12,0,0,1,24,15.24Z" transform="translate(-3)"/>
    </symbol>
</svg>